<svg width="1653" height="993" xmlns="http://www.w3.org/2000/svg" xmlns:xlink="http://www.w3.org/1999/xlink" xml:space="preserve" overflow="hidden"><defs><clipPath id="clip0"><rect x="3440" y="1417" width="1653" height="993"/></clipPath><clipPath id="clip1"><rect x="3440" y="1417" width="1650" height="990"/></clipPath><clipPath id="clip2"><rect x="3550" y="1587" width="1493" height="718"/></clipPath><clipPath id="clip3"><rect x="3440" y="1417" width="1650" height="990"/></clipPath><clipPath id="clip4"><rect x="3440" y="1417" width="1650" height="990"/></clipPath><clipPath id="clip5"><rect x="3440" y="1417" width="1650" height="990"/></clipPath><clipPath id="clip6"><rect x="3440" y="1417" width="1650" height="990"/></clipPath><clipPath id="clip7"><rect x="3440" y="1417" width="1650" height="990"/></clipPath><clipPath id="clip8"><rect x="3440" y="1417" width="1650" height="990"/></clipPath><clipPath id="clip9"><rect x="3440" y="1417" width="1650" height="990"/></clipPath><clipPath id="clip10"><rect x="3440" y="1417" width="1650" height="990"/></clipPath><clipPath id="clip11"><rect x="3440" y="1417" width="1650" height="990"/></clipPath><clipPath id="clip12"><rect x="3440" y="1417" width="1650" height="990"/></clipPath><clipPath id="clip13"><rect x="3440" y="1417" width="1650" height="990"/></clipPath><clipPath id="clip14"><rect x="3440" y="1417" width="1650" height="990"/></clipPath><clipPath id="clip15"><rect x="3440" y="1417" width="1650" height="990"/></clipPath><clipPath id="clip16"><rect x="3440" y="1417" width="1650" height="990"/></clipPath><clipPath id="clip17"><rect x="3440" y="1417" width="1650" height="990"/></clipPath><clipPath id="clip18"><rect x="3440" y="1417" width="1650" height="990"/></clipPath><clipPath id="clip19"><rect x="3440" y="1417" width="1650" height="990"/></clipPath><clipPath id="clip20"><rect x="3440" y="1417" width="1650" height="990"/></clipPath><clipPath id="clip21"><rect x="3440" y="1417" width="1650" height="990"/></clipPath><clipPath id="clip22"><rect x="3440" y="1417" width="1650" height="990"/></clipPath><clipPath id="clip23"><rect x="3440" y="1417" width="1650" height="990"/></clipPath><clipPath id="clip24"><rect x="3440" y="1417" width="1650" height="990"/></clipPath><clipPath id="clip25"><rect x="3440" y="1417" width="1650" height="990"/></clipPath><clipPath id="clip26"><rect x="3440" y="1417" width="1650" height="990"/></clipPath><clipPath id="clip27"><rect x="3440" y="1417" width="1650" height="990"/></clipPath></defs><g clip-path="url(#clip0)" transform="translate(-3440 -1417)"><rect x="3441" y="1418" width="1650" height="990" fill="#FFFFFF"/><g clip-path="url(#clip1)"><path d="M3550.5 2182.57 5040.5 2182.57M3550.5 2063.57 5040.5 2063.57M3550.5 1944.56 5040.5 1944.56M3550.5 1825.56 5040.5 1825.56M3550.5 1706.56 5040.5 1706.56M3550.5 1587.5 5040.5 1587.5" stroke="#D9D9D9" stroke-width="3.4375" stroke-linejoin="round" stroke-miterlimit="10" fill="none"/></g><g clip-path="url(#clip2)"><path d="M3615.12 2111.07 3673.12 2111.07 3673.12 2302 3615.12 2302ZM3801.12 2040.07 3859.13 2040.07 3859.13 2302 3801.12 2302ZM3987.13 1719.06 4045.13 1719.06 4045.13 2302 3987.13 2302ZM4173.14 2016.07 4232.14 2016.07 4232.14 2302 4173.14 2302ZM4359.14 2135.07 4418.15 2135.07 4418.15 2302 4359.14 2302ZM4546.15 1945.06 4604.15 1945.06 4604.15 2302 4546.15 2302ZM4732.16 2040.07 4790.16 2040.07 4790.16 2302 4732.16 2302ZM4918.16 1992.07 4976.16 1992.07 4976.16 2302 4918.16 2302Z" fill="#4472C4"/></g><g clip-path="url(#clip3)"><path d="M3550.5 2301.5 5040.5 2301.5" stroke="#D9D9D9" stroke-width="3.4375" stroke-linejoin="round" stroke-miterlimit="10" fill="none" fill-rule="evenodd"/></g><g clip-path="url(#clip4)"><text fill="#404040" font-family="Calibri,Calibri_MSFontService,sans-serif" font-weight="400" font-size="41" transform="matrix(1 0 0 1 3633.45 2079)">8</text></g><g clip-path="url(#clip5)"><text fill="#404040" font-family="Calibri,Calibri_MSFontService,sans-serif" font-weight="400" font-size="41" transform="matrix(1 0 0 1 3809.22 2008)">11</text></g><g clip-path="url(#clip6)"><text fill="#404040" font-family="Calibri,Calibri_MSFontService,sans-serif" font-weight="400" font-size="41" transform="matrix(1 0 0 1 3979.78 1687)">24.5</text></g><g clip-path="url(#clip7)"><text fill="#404040" font-family="Calibri,Calibri_MSFontService,sans-serif" font-weight="400" font-size="41" transform="matrix(1 0 0 1 4181.65 1984)">12</text></g><g clip-path="url(#clip8)"><text fill="#404040" font-family="Calibri,Calibri_MSFontService,sans-serif" font-weight="400" font-size="41" transform="matrix(1 0 0 1 4378.32 2103)">7</text></g><g clip-path="url(#clip9)"><text fill="#404040" font-family="Calibri,Calibri_MSFontService,sans-serif" font-weight="400" font-size="41" transform="matrix(1 0 0 1 4554.08 1913)">15</text></g><g clip-path="url(#clip10)"><text fill="#404040" font-family="Calibri,Calibri_MSFontService,sans-serif" font-weight="400" font-size="41" transform="matrix(1 0 0 1 4740.3 2008)">11</text></g><g clip-path="url(#clip11)"><text fill="#404040" font-family="Calibri,Calibri_MSFontService,sans-serif" font-weight="400" font-size="41" transform="matrix(1 0 0 1 4926.51 1960)">13</text></g><g clip-path="url(#clip12)"><text fill="#595959" font-family="Calibri,Calibri_MSFontService,sans-serif" font-weight="400" font-size="41" transform="matrix(1 0 0 1 3491.63 2313)">0</text></g><g clip-path="url(#clip13)"><text fill="#595959" font-family="Calibri,Calibri_MSFontService,sans-serif" font-weight="400" font-size="41" transform="matrix(1 0 0 1 3491.63 2194)">5</text></g><g clip-path="url(#clip14)"><text fill="#595959" font-family="Calibri,Calibri_MSFontService,sans-serif" font-weight="400" font-size="41" transform="matrix(1 0 0 1 3470.73 2075)">10</text></g><g clip-path="url(#clip15)"><text fill="#595959" font-family="Calibri,Calibri_MSFontService,sans-serif" font-weight="400" font-size="41" transform="matrix(1 0 0 1 3470.73 1956)">15</text></g><g clip-path="url(#clip16)"><text fill="#595959" font-family="Calibri,Calibri_MSFontService,sans-serif" font-weight="400" font-size="41" transform="matrix(1 0 0 1 3470.73 1837)">20</text></g><g clip-path="url(#clip17)"><text fill="#595959" font-family="Calibri,Calibri_MSFontService,sans-serif" font-weight="400" font-size="41" transform="matrix(1 0 0 1 3470.73 1718)">25</text></g><g clip-path="url(#clip18)"><text fill="#595959" font-family="Calibri,Calibri_MSFontService,sans-serif" font-weight="400" font-size="41" transform="matrix(1 0 0 1 3470.73 1600)">30</text></g><g clip-path="url(#clip19)"><text fill="#595959" font-family="Calibri,Calibri_MSFontService,sans-serif" font-weight="400" font-size="41" transform="matrix(1 0 0 1 3604.48 2367)">Base</text></g><g clip-path="url(#clip20)"><text fill="#595959" font-family="Calibri,Calibri_MSFontService,sans-serif" font-weight="400" font-size="41" transform="matrix(1 0 0 1 3767.68 2367)">Duarte</text></g><g clip-path="url(#clip21)"><text fill="#595959" font-family="Calibri,Calibri_MSFontService,sans-serif" font-weight="400" font-size="41" transform="matrix(1 0 0 1 3965.37 2367)">Bruno</text></g><g clip-path="url(#clip22)"><text fill="#595959" font-family="Calibri,Calibri_MSFontService,sans-serif" font-weight="400" font-size="41" transform="matrix(1 0 0 1 4137.13 2367)">Rodrigo</text></g><g clip-path="url(#clip23)"><text fill="#595959" font-family="Calibri,Calibri_MSFontService,sans-serif" font-weight="400" font-size="41" transform="matrix(1 0 0 1 4338.93 2367)">Pedro</text></g><g clip-path="url(#clip24)"><text fill="#595959" font-family="Calibri,Calibri_MSFontService,sans-serif" font-weight="400" font-size="41" transform="matrix(1 0 0 1 4529.11 2367)">Nuno</text></g><g clip-path="url(#clip25)"><text fill="#595959" font-family="Calibri,Calibri_MSFontService,sans-serif" font-weight="400" font-size="41" transform="matrix(1 0 0 1 4703.29 2367)">Miguel</text></g><g clip-path="url(#clip26)"><text fill="#595959" font-family="Calibri,Calibri_MSFontService,sans-serif" font-weight="400" font-size="41" transform="matrix(1 0 0 1 4891.18 2367)">Jordão</text></g><g clip-path="url(#clip27)"><text fill="#595959" font-family="Calibri,Calibri_MSFontService,sans-serif" font-weight="400" font-size="64" transform="matrix(1 0 0 1 4030.1 1513)">Horas trabalhadas</text></g><rect x="3441.5" y="1418.5" width="1650" height="990" stroke="#D9D9D9" stroke-width="3.4375" stroke-linejoin="round" stroke-miterlimit="10" fill="none"/></g></svg>