<svg width="1652" height="993" xmlns="http://www.w3.org/2000/svg" xmlns:xlink="http://www.w3.org/1999/xlink" xml:space="preserve" overflow="hidden"><defs><clipPath id="clip0"><rect x="1006" y="263" width="1652" height="993"/></clipPath><clipPath id="clip1"><rect x="1006" y="264" width="1650" height="990"/></clipPath><clipPath id="clip2"><rect x="1192" y="433" width="1417" height="570"/></clipPath><clipPath id="clip3"><rect x="1006" y="264" width="1650" height="990"/></clipPath><clipPath id="clip4"><rect x="1006" y="264" width="1650" height="990"/></clipPath><clipPath id="clip5"><rect x="1006" y="264" width="1650" height="990"/></clipPath><clipPath id="clip6"><rect x="1006" y="264" width="1650" height="990"/></clipPath><clipPath id="clip7"><rect x="1006" y="264" width="1650" height="990"/></clipPath><clipPath id="clip8"><rect x="1006" y="264" width="1650" height="990"/></clipPath><clipPath id="clip9"><rect x="1006" y="264" width="1650" height="990"/></clipPath><clipPath id="clip10"><rect x="1006" y="264" width="1650" height="990"/></clipPath><clipPath id="clip11"><rect x="1006" y="264" width="1650" height="990"/></clipPath><clipPath id="clip12"><rect x="1006" y="264" width="1650" height="990"/></clipPath><clipPath id="clip13"><rect x="1006" y="264" width="1650" height="990"/></clipPath><clipPath id="clip14"><rect x="1006" y="264" width="1650" height="990"/></clipPath><clipPath id="clip15"><rect x="1006" y="264" width="1650" height="990"/></clipPath><clipPath id="clip16"><rect x="1006" y="264" width="1650" height="990"/></clipPath><clipPath id="clip17"><rect x="1006" y="264" width="1650" height="990"/></clipPath><clipPath id="clip18"><rect x="1006" y="264" width="1650" height="990"/></clipPath><clipPath id="clip19"><rect x="1006" y="264" width="1650" height="990"/></clipPath><clipPath id="clip20"><rect x="1006" y="264" width="1650" height="990"/></clipPath><clipPath id="clip21"><rect x="1006" y="264" width="1650" height="990"/></clipPath><clipPath id="clip22"><rect x="1006" y="264" width="1650" height="990"/></clipPath><clipPath id="clip23"><rect x="1006" y="264" width="1650" height="990"/></clipPath><clipPath id="clip24"><rect x="1006" y="264" width="1650" height="990"/></clipPath><clipPath id="clip25"><rect x="1006" y="264" width="1650" height="990"/></clipPath><clipPath id="clip26"><rect x="1006" y="264" width="1650" height="990"/></clipPath></defs><g clip-path="url(#clip0)" transform="translate(-1006 -263)"><rect x="1007" y="264" width="1649" height="990" fill="#FFFFFF"/><g clip-path="url(#clip1)"><path d="M1192.5 937.531 2606.5 937.531M1192.5 874.529 2606.5 874.529M1192.5 811.527 2606.5 811.527M1192.5 748.525 2606.5 748.525M1192.5 685.523 2606.5 685.523M1192.5 622.521 2606.5 622.521M1192.5 559.519 2606.5 559.519M1192.5 496.516 2606.5 496.516M1192.5 433.5 2606.5 433.5" stroke="#D9D9D9" stroke-width="3.4375" stroke-linejoin="round" stroke-miterlimit="10" fill="none"/></g><g clip-path="url(#clip2)"><path d="M1273.04 686.022 1347.04 686.022 1347.04 1000 1273.04 1000ZM1509.05 497.016 1583.05 497.016 1583.05 1000 1509.05 1000ZM1745.06 686.022 1818.06 686.022 1818.06 1000 1745.06 1000ZM2216.07 748.025 2290.08 748.025 2290.08 1000 2216.07 1000ZM2451.08 748.025 2525.08 748.025 2525.08 1000 2451.08 1000Z" fill="#5B9BD5"/></g><g clip-path="url(#clip3)"><path d="M1192.5 1000.5 2606.5 1000.5" stroke="#D9D9D9" stroke-width="3.4375" stroke-linejoin="round" stroke-miterlimit="10" fill="none" fill-rule="evenodd"/></g><g clip-path="url(#clip4)"><text fill="#595959" font-family="Calibri,Calibri_MSFontService,sans-serif" font-weight="400" font-size="41" transform="matrix(1 0 0 1 1133.48 1012)">0</text></g><g clip-path="url(#clip5)"><text fill="#595959" font-family="Calibri,Calibri_MSFontService,sans-serif" font-weight="400" font-size="41" transform="matrix(1 0 0 1 1133.48 949)">1</text></g><g clip-path="url(#clip6)"><text fill="#595959" font-family="Calibri,Calibri_MSFontService,sans-serif" font-weight="400" font-size="41" transform="matrix(1 0 0 1 1133.48 886)">2</text></g><g clip-path="url(#clip7)"><text fill="#595959" font-family="Calibri,Calibri_MSFontService,sans-serif" font-weight="400" font-size="41" transform="matrix(1 0 0 1 1133.48 823)">3</text></g><g clip-path="url(#clip8)"><text fill="#595959" font-family="Calibri,Calibri_MSFontService,sans-serif" font-weight="400" font-size="41" transform="matrix(1 0 0 1 1133.48 760)">4</text></g><g clip-path="url(#clip9)"><text fill="#595959" font-family="Calibri,Calibri_MSFontService,sans-serif" font-weight="400" font-size="41" transform="matrix(1 0 0 1 1133.48 697)">5</text></g><g clip-path="url(#clip10)"><text fill="#595959" font-family="Calibri,Calibri_MSFontService,sans-serif" font-weight="400" font-size="41" transform="matrix(1 0 0 1 1133.48 634)">6</text></g><g clip-path="url(#clip11)"><text fill="#595959" font-family="Calibri,Calibri_MSFontService,sans-serif" font-weight="400" font-size="41" transform="matrix(1 0 0 1 1133.48 571)">7</text></g><g clip-path="url(#clip12)"><text fill="#595959" font-family="Calibri,Calibri_MSFontService,sans-serif" font-weight="400" font-size="41" transform="matrix(1 0 0 1 1133.48 508)">8</text></g><g clip-path="url(#clip13)"><text fill="#595959" font-family="Calibri,Calibri_MSFontService,sans-serif" font-weight="400" font-size="41" transform="matrix(1 0 0 1 1133.48 446)">9</text></g><g clip-path="url(#clip14)"><text fill="#595959" font-family="Calibri,Calibri_MSFontService,sans-serif" font-weight="400" font-size="41" transform="matrix(1 0 0 1 1251.55 1065)">Afonso</text></g><g clip-path="url(#clip15)"><text fill="#595959" font-family="Calibri,Calibri_MSFontService,sans-serif" font-weight="400" font-size="41" transform="matrix(1 0 0 1 1252.66 1116)">Duarte</text></g><g clip-path="url(#clip16)"><text fill="#595959" font-family="Calibri,Calibri_MSFontService,sans-serif" font-weight="400" font-size="41" transform="matrix(1 0 0 1 1457.64 1065)">Guilherme</text></g><g clip-path="url(#clip17)"><text fill="#595959" font-family="Calibri,Calibri_MSFontService,sans-serif" font-weight="400" font-size="41" transform="matrix(1 0 0 1 1504.85 1116)">Faria</text></g><g clip-path="url(#clip18)"><text fill="#595959" font-family="Calibri,Calibri_MSFontService,sans-serif" font-weight="400" font-size="41" transform="matrix(1 0 0 1 1665.19 1065)">Daniela Lopes</text></g><g clip-path="url(#clip19)"><text fill="#595959" font-family="Calibri,Calibri_MSFontService,sans-serif" font-weight="400" font-size="41" transform="matrix(1 0 0 1 1904.32 1065)">Mariana Silva</text></g><g clip-path="url(#clip20)"><text fill="#595959" font-family="Calibri,Calibri_MSFontService,sans-serif" font-weight="400" font-size="41" transform="matrix(1 0 0 1 2182.19 1065)">Eduardo</text></g><g clip-path="url(#clip21)"><text fill="#595959" font-family="Calibri,Calibri_MSFontService,sans-serif" font-weight="400" font-size="41" transform="matrix(1 0 0 1 2199.4 1116)">Nunes</text></g><g clip-path="url(#clip22)"><text fill="#595959" font-family="Calibri,Calibri_MSFontService,sans-serif" font-weight="400" font-size="41" transform="matrix(1 0 0 1 2430.39 1065)">Miguel</text></g><g clip-path="url(#clip23)"><text fill="#595959" font-family="Calibri,Calibri_MSFontService,sans-serif" font-weight="400" font-size="41" transform="matrix(1 0 0 1 2420.6 1116)">Santana</text></g><g clip-path="url(#clip24)"><text fill="#595959" font-family="Calibri,Calibri_MSFontService,sans-serif" font-weight="400" font-size="46" transform="matrix(6.12323e-17 -1 1 6.12323e-17 1107.79 831)">Hours Spent</text></g><g clip-path="url(#clip25)"><text fill="#595959" font-family="Calibri,Calibri_MSFontService,sans-serif" font-weight="400" font-size="46" transform="matrix(1 0 0 1 1834.92 1185)">Names</text></g><g clip-path="url(#clip26)"><text fill="#595959" font-family="Calibri,Calibri_MSFontService,sans-serif" font-weight="400" font-size="64" transform="matrix(1 0 0 1 1491.82 359)">Working Hours of Group 5</text></g><rect x="1007.5" y="264.5" width="1649" height="990" stroke="#D9D9D9" stroke-width="3.4375" stroke-linejoin="round" stroke-miterlimit="10" fill="none"/></g></svg>