<svg width="1652" height="993" xmlns="http://www.w3.org/2000/svg" xmlns:xlink="http://www.w3.org/1999/xlink" xml:space="preserve" overflow="hidden"><defs><clipPath id="clip0"><rect x="1732" y="425" width="1652" height="993"/></clipPath><clipPath id="clip1"><rect x="1732" y="426" width="1650" height="990"/></clipPath><clipPath id="clip2"><rect x="1821" y="596" width="1514" height="717"/></clipPath><clipPath id="clip3"><rect x="1732" y="426" width="1650" height="990"/></clipPath><clipPath id="clip4"><rect x="1732" y="426" width="1650" height="990"/></clipPath><clipPath id="clip5"><rect x="1732" y="426" width="1650" height="990"/></clipPath><clipPath id="clip6"><rect x="1732" y="426" width="1650" height="990"/></clipPath><clipPath id="clip7"><rect x="1732" y="426" width="1650" height="990"/></clipPath><clipPath id="clip8"><rect x="1732" y="426" width="1650" height="990"/></clipPath><clipPath id="clip9"><rect x="1732" y="426" width="1650" height="990"/></clipPath><clipPath id="clip10"><rect x="1732" y="426" width="1650" height="990"/></clipPath><clipPath id="clip11"><rect x="1732" y="426" width="1650" height="990"/></clipPath><clipPath id="clip12"><rect x="1732" y="426" width="1650" height="990"/></clipPath><clipPath id="clip13"><rect x="1732" y="426" width="1650" height="990"/></clipPath><clipPath id="clip14"><rect x="1732" y="426" width="1650" height="990"/></clipPath><clipPath id="clip15"><rect x="1732" y="426" width="1650" height="990"/></clipPath><clipPath id="clip16"><rect x="1732" y="426" width="1650" height="990"/></clipPath><clipPath id="clip17"><rect x="1732" y="426" width="1650" height="990"/></clipPath><clipPath id="clip18"><rect x="1732" y="426" width="1650" height="990"/></clipPath><clipPath id="clip19"><rect x="1732" y="426" width="1650" height="990"/></clipPath><clipPath id="clip20"><rect x="1732" y="426" width="1650" height="990"/></clipPath><clipPath id="clip21"><rect x="1732" y="426" width="1650" height="990"/></clipPath><clipPath id="clip22"><rect x="1732" y="426" width="1650" height="990"/></clipPath><clipPath id="clip23"><rect x="1732" y="426" width="1650" height="990"/></clipPath><clipPath id="clip24"><rect x="1732" y="426" width="1650" height="990"/></clipPath><clipPath id="clip25"><rect x="1732" y="426" width="1650" height="990"/></clipPath><clipPath id="clip26"><rect x="1732" y="426" width="1650" height="990"/></clipPath><clipPath id="clip27"><rect x="1732" y="426" width="1650" height="990"/></clipPath></defs><g clip-path="url(#clip0)" transform="translate(-1732 -425)"><rect x="1733" y="426" width="1649" height="990" fill="#FFFFFF"/><g clip-path="url(#clip1)"><path d="M1821.5 1220.54 3332.5 1220.54M1821.5 1131.54 3332.5 1131.54M1821.5 1042.53 3332.5 1042.53M1821.5 953.531 3332.5 953.531M1821.5 863.528 3332.5 863.528M1821.5 774.526 3332.5 774.526M1821.5 685.523 3332.5 685.523M1821.5 596.5 3332.5 596.5" stroke="#D9D9D9" stroke-width="3.4375" stroke-linejoin="round" stroke-miterlimit="10" fill="none"/></g><g clip-path="url(#clip2)"><path d="M1895.06 596 1963.06 596 1963.06 1310 1895.06 1310ZM2111.07 775.025 2179.07 775.025 2179.07 1310 2111.07 1310ZM2327.08 998.033 2395.08 998.033 2395.08 1310 2327.08 1310ZM2543.08 1042.03 2611.09 1042.03 2611.09 1310 2543.08 1310ZM2759.09 1131.04 2826.09 1131.04 2826.09 1310 2759.09 1310ZM2974.1 1042.03 3042.1 1042.03 3042.1 1310 2974.1 1310ZM3190.1 1087.04 3258.11 1087.04 3258.11 1310 3190.1 1310Z" fill="#4472C4"/></g><g clip-path="url(#clip3)"><path d="M1821.5 1309.5 3332.5 1309.5" stroke="#D9D9D9" stroke-width="3.4375" stroke-linejoin="round" stroke-miterlimit="10" fill="none" fill-rule="evenodd"/></g><g clip-path="url(#clip4)"><text fill="#404040" font-family="Calibri,Calibri_MSFontService,sans-serif" font-weight="400" font-size="41" transform="matrix(1 0 0 1 1918.91 564)">8</text></g><g clip-path="url(#clip5)"><text fill="#404040" font-family="Calibri,Calibri_MSFontService,sans-serif" font-weight="400" font-size="41" transform="matrix(1 0 0 1 2134.71 743)">6</text></g><g clip-path="url(#clip6)"><text fill="#404040" font-family="Calibri,Calibri_MSFontService,sans-serif" font-weight="400" font-size="41" transform="matrix(1 0 0 1 2334.86 966)">3.5</text></g><g clip-path="url(#clip7)"><text fill="#404040" font-family="Calibri,Calibri_MSFontService,sans-serif" font-weight="400" font-size="41" transform="matrix(1 0 0 1 2566.32 1010)">3</text></g><g clip-path="url(#clip8)"><text fill="#404040" font-family="Calibri,Calibri_MSFontService,sans-serif" font-weight="400" font-size="41" transform="matrix(1 0 0 1 2782.12 1100)">2</text></g><g clip-path="url(#clip9)"><text fill="#404040" font-family="Calibri,Calibri_MSFontService,sans-serif" font-weight="400" font-size="41" transform="matrix(1 0 0 1 2997.93 1010)">3</text></g><g clip-path="url(#clip10)"><text fill="#404040" font-family="Calibri,Calibri_MSFontService,sans-serif" font-weight="400" font-size="41" transform="matrix(1 0 0 1 3198.08 1055)">2.5</text></g><g clip-path="url(#clip11)"><text fill="#595959" font-family="Calibri,Calibri_MSFontService,sans-serif" font-weight="400" font-size="41" transform="matrix(1 0 0 1 1762.29 1321)">0</text></g><g clip-path="url(#clip12)"><text fill="#595959" font-family="Calibri,Calibri_MSFontService,sans-serif" font-weight="400" font-size="41" transform="matrix(1 0 0 1 1762.29 1232)">1</text></g><g clip-path="url(#clip13)"><text fill="#595959" font-family="Calibri,Calibri_MSFontService,sans-serif" font-weight="400" font-size="41" transform="matrix(1 0 0 1 1762.29 1143)">2</text></g><g clip-path="url(#clip14)"><text fill="#595959" font-family="Calibri,Calibri_MSFontService,sans-serif" font-weight="400" font-size="41" transform="matrix(1 0 0 1 1762.29 1054)">3</text></g><g clip-path="url(#clip15)"><text fill="#595959" font-family="Calibri,Calibri_MSFontService,sans-serif" font-weight="400" font-size="41" transform="matrix(1 0 0 1 1762.29 965)">4</text></g><g clip-path="url(#clip16)"><text fill="#595959" font-family="Calibri,Calibri_MSFontService,sans-serif" font-weight="400" font-size="41" transform="matrix(1 0 0 1 1762.29 875)">5</text></g><g clip-path="url(#clip17)"><text fill="#595959" font-family="Calibri,Calibri_MSFontService,sans-serif" font-weight="400" font-size="41" transform="matrix(1 0 0 1 1762.29 786)">6</text></g><g clip-path="url(#clip18)"><text fill="#595959" font-family="Calibri,Calibri_MSFontService,sans-serif" font-weight="400" font-size="41" transform="matrix(1 0 0 1 1762.29 697)">7</text></g><g clip-path="url(#clip19)"><text fill="#595959" font-family="Calibri,Calibri_MSFontService,sans-serif" font-weight="400" font-size="41" transform="matrix(1 0 0 1 1762.29 608)">8</text></g><g clip-path="url(#clip20)"><text fill="#595959" font-family="Calibri,Calibri_MSFontService,sans-serif" font-weight="400" font-size="41" transform="matrix(1 0 0 1 1889.93 1375)">Base</text></g><g clip-path="url(#clip21)"><text fill="#595959" font-family="Calibri,Calibri_MSFontService,sans-serif" font-weight="400" font-size="41" transform="matrix(1 0 0 1 2087.39 1375)">Duarte</text></g><g clip-path="url(#clip22)"><text fill="#595959" font-family="Calibri,Calibri_MSFontService,sans-serif" font-weight="400" font-size="41" transform="matrix(1 0 0 1 2310 1375)">Bruno</text></g><g clip-path="url(#clip23)"><text fill="#595959" font-family="Calibri,Calibri_MSFontService,sans-serif" font-weight="400" font-size="41" transform="matrix(1 0 0 1 2511.35 1375)">Rodrigo</text></g><g clip-path="url(#clip24)"><text fill="#595959" font-family="Calibri,Calibri_MSFontService,sans-serif" font-weight="400" font-size="41" transform="matrix(1 0 0 1 2742.74 1375)">Pedro</text></g><g clip-path="url(#clip25)"><text fill="#595959" font-family="Calibri,Calibri_MSFontService,sans-serif" font-weight="400" font-size="41" transform="matrix(1 0 0 1 2957.85 1375)">Nuno</text></g><g clip-path="url(#clip26)"><text fill="#595959" font-family="Calibri,Calibri_MSFontService,sans-serif" font-weight="400" font-size="41" transform="matrix(1 0 0 1 3166.27 1375)">Miguel</text></g><g clip-path="url(#clip27)"><text fill="#595959" font-family="Calibri,Calibri_MSFontService,sans-serif" font-weight="400" font-size="64" transform="matrix(1 0 0 1 2321.66 522)">Horas trabalhadas</text></g><rect x="1733.5" y="426.5" width="1649" height="990" stroke="#D9D9D9" stroke-width="3.4375" stroke-linejoin="round" stroke-miterlimit="10" fill="none"/></g></svg>