<svg width="1653" height="993" xmlns="http://www.w3.org/2000/svg" xmlns:xlink="http://www.w3.org/1999/xlink" xml:space="preserve" overflow="hidden"><defs><clipPath id="clip0"><rect x="2131" y="286" width="1653" height="993"/></clipPath><clipPath id="clip1"><rect x="2131" y="286" width="1650" height="990"/></clipPath><clipPath id="clip2"><rect x="2220" y="456" width="1514" height="717"/></clipPath><clipPath id="clip3"><rect x="2131" y="286" width="1650" height="990"/></clipPath><clipPath id="clip4"><rect x="2131" y="286" width="1650" height="990"/></clipPath><clipPath id="clip5"><rect x="2131" y="286" width="1650" height="990"/></clipPath><clipPath id="clip6"><rect x="2131" y="286" width="1650" height="990"/></clipPath><clipPath id="clip7"><rect x="2131" y="286" width="1650" height="990"/></clipPath><clipPath id="clip8"><rect x="2131" y="286" width="1650" height="990"/></clipPath><clipPath id="clip9"><rect x="2131" y="286" width="1650" height="990"/></clipPath><clipPath id="clip10"><rect x="2131" y="286" width="1650" height="990"/></clipPath><clipPath id="clip11"><rect x="2131" y="286" width="1650" height="990"/></clipPath><clipPath id="clip12"><rect x="2131" y="286" width="1650" height="990"/></clipPath><clipPath id="clip13"><rect x="2131" y="286" width="1650" height="990"/></clipPath><clipPath id="clip14"><rect x="2131" y="286" width="1650" height="990"/></clipPath><clipPath id="clip15"><rect x="2131" y="286" width="1650" height="990"/></clipPath><clipPath id="clip16"><rect x="2131" y="286" width="1650" height="990"/></clipPath><clipPath id="clip17"><rect x="2131" y="286" width="1650" height="990"/></clipPath><clipPath id="clip18"><rect x="2131" y="286" width="1650" height="990"/></clipPath><clipPath id="clip19"><rect x="2131" y="286" width="1650" height="990"/></clipPath><clipPath id="clip20"><rect x="2131" y="286" width="1650" height="990"/></clipPath><clipPath id="clip21"><rect x="2131" y="286" width="1650" height="990"/></clipPath><clipPath id="clip22"><rect x="2131" y="286" width="1650" height="990"/></clipPath><clipPath id="clip23"><rect x="2131" y="286" width="1650" height="990"/></clipPath><clipPath id="clip24"><rect x="2131" y="286" width="1650" height="990"/></clipPath><clipPath id="clip25"><rect x="2131" y="286" width="1650" height="990"/></clipPath><clipPath id="clip26"><rect x="2131" y="286" width="1650" height="990"/></clipPath><clipPath id="clip27"><rect x="2131" y="286" width="1650" height="990"/></clipPath><clipPath id="clip28"><rect x="2131" y="286" width="1650" height="990"/></clipPath><clipPath id="clip29"><rect x="2131" y="286" width="1650" height="990"/></clipPath></defs><g clip-path="url(#clip0)" transform="translate(-2131 -286)"><rect x="2132" y="287" width="1650" height="990" fill="#FFFFFF"/><g clip-path="url(#clip1)"><path d="M2220.5 1081.54 3731.5 1081.54M2220.5 991.533 3731.5 991.533M2220.5 902.53 3731.5 902.53M2220.5 813.527 3731.5 813.527M2220.5 724.524 3731.5 724.524M2220.5 635.521 3731.5 635.521M2220.5 545.518 3731.5 545.518M2220.5 456.5 3731.5 456.5" stroke="#D9D9D9" stroke-width="3.4375" stroke-linejoin="round" stroke-miterlimit="10" fill="none"/></g><g clip-path="url(#clip2)"><path d="M2286.07 457 2345.08 457 2345.08 1170 2286.07 1170ZM2474.08 635.021 2534.08 635.021 2534.08 1170 2474.08 1170ZM2663.09 858.028 2722.09 858.028 2722.09 1170 2663.09 1170ZM2852.09 903.03 2911.1 903.03 2911.1 1170 2852.09 1170ZM3041.1 992.033 3100.1 992.033 3100.1 1170 3041.1 1170ZM3230.11 903.03 3289.11 903.03 3289.11 1170 3230.11 1170ZM3419.11 947.031 3478.11 947.031 3478.11 1170 3419.11 1170ZM3607.12 1037.03 3667.12 1037.03 3667.12 1170 3607.12 1170Z" fill="#4472C4"/></g><g clip-path="url(#clip3)"><path d="M2220.5 1170.5 3731.5 1170.5" stroke="#D9D9D9" stroke-width="3.4375" stroke-linejoin="round" stroke-miterlimit="10" fill="none" fill-rule="evenodd"/></g><g clip-path="url(#clip4)"><text fill="#404040" font-family="Calibri,Calibri_MSFontService,sans-serif" font-weight="400" font-size="41" transform="matrix(1 0 0 1 2304.86 425)">8</text></g><g clip-path="url(#clip5)"><text fill="#404040" font-family="Calibri,Calibri_MSFontService,sans-serif" font-weight="400" font-size="41" transform="matrix(1 0 0 1 2493.69 603)">6</text></g><g clip-path="url(#clip6)"><text fill="#404040" font-family="Calibri,Calibri_MSFontService,sans-serif" font-weight="400" font-size="41" transform="matrix(1 0 0 1 2666.86 826)">3.5</text></g><g clip-path="url(#clip7)"><text fill="#404040" font-family="Calibri,Calibri_MSFontService,sans-serif" font-weight="400" font-size="41" transform="matrix(1 0 0 1 2871.34 871)">3</text></g><g clip-path="url(#clip8)"><text fill="#404040" font-family="Calibri,Calibri_MSFontService,sans-serif" font-weight="400" font-size="41" transform="matrix(1 0 0 1 3060.17 960)">2</text></g><g clip-path="url(#clip9)"><text fill="#404040" font-family="Calibri,Calibri_MSFontService,sans-serif" font-weight="400" font-size="41" transform="matrix(1 0 0 1 3249 871)">3</text></g><g clip-path="url(#clip10)"><text fill="#404040" font-family="Calibri,Calibri_MSFontService,sans-serif" font-weight="400" font-size="41" transform="matrix(1 0 0 1 3422.18 915)">2.5</text></g><g clip-path="url(#clip11)"><text fill="#404040" font-family="Calibri,Calibri_MSFontService,sans-serif" font-weight="400" font-size="41" transform="matrix(1 0 0 1 3611 1005)">1.5</text></g><g clip-path="url(#clip12)"><text fill="#595959" font-family="Calibri,Calibri_MSFontService,sans-serif" font-weight="400" font-size="41" transform="matrix(1 0 0 1 2161.73 1182)">0</text></g><g clip-path="url(#clip13)"><text fill="#595959" font-family="Calibri,Calibri_MSFontService,sans-serif" font-weight="400" font-size="41" transform="matrix(1 0 0 1 2161.73 1093)">1</text></g><g clip-path="url(#clip14)"><text fill="#595959" font-family="Calibri,Calibri_MSFontService,sans-serif" font-weight="400" font-size="41" transform="matrix(1 0 0 1 2161.73 1003)">2</text></g><g clip-path="url(#clip15)"><text fill="#595959" font-family="Calibri,Calibri_MSFontService,sans-serif" font-weight="400" font-size="41" transform="matrix(1 0 0 1 2161.73 914)">3</text></g><g clip-path="url(#clip16)"><text fill="#595959" font-family="Calibri,Calibri_MSFontService,sans-serif" font-weight="400" font-size="41" transform="matrix(1 0 0 1 2161.73 825)">4</text></g><g clip-path="url(#clip17)"><text fill="#595959" font-family="Calibri,Calibri_MSFontService,sans-serif" font-weight="400" font-size="41" transform="matrix(1 0 0 1 2161.73 736)">5</text></g><g clip-path="url(#clip18)"><text fill="#595959" font-family="Calibri,Calibri_MSFontService,sans-serif" font-weight="400" font-size="41" transform="matrix(1 0 0 1 2161.73 647)">6</text></g><g clip-path="url(#clip19)"><text fill="#595959" font-family="Calibri,Calibri_MSFontService,sans-serif" font-weight="400" font-size="41" transform="matrix(1 0 0 1 2161.73 557)">7</text></g><g clip-path="url(#clip20)"><text fill="#595959" font-family="Calibri,Calibri_MSFontService,sans-serif" font-weight="400" font-size="41" transform="matrix(1 0 0 1 2161.73 468)">8</text></g><g clip-path="url(#clip21)"><text fill="#595959" font-family="Calibri,Calibri_MSFontService,sans-serif" font-weight="400" font-size="41" transform="matrix(1 0 0 1 2275.88 1236)">Base</text></g><g clip-path="url(#clip22)"><text fill="#595959" font-family="Calibri,Calibri_MSFontService,sans-serif" font-weight="400" font-size="41" transform="matrix(1 0 0 1 2446.36 1236)">Duarte</text></g><g clip-path="url(#clip23)"><text fill="#595959" font-family="Calibri,Calibri_MSFontService,sans-serif" font-weight="400" font-size="41" transform="matrix(1 0 0 1 2642 1236)">Bruno</text></g><g clip-path="url(#clip24)"><text fill="#595959" font-family="Calibri,Calibri_MSFontService,sans-serif" font-weight="400" font-size="41" transform="matrix(1 0 0 1 2816.38 1236)">Rodrigo</text></g><g clip-path="url(#clip25)"><text fill="#595959" font-family="Calibri,Calibri_MSFontService,sans-serif" font-weight="400" font-size="41" transform="matrix(1 0 0 1 3020.79 1236)">Pedro</text></g><g clip-path="url(#clip26)"><text fill="#595959" font-family="Calibri,Calibri_MSFontService,sans-serif" font-weight="400" font-size="41" transform="matrix(1 0 0 1 3208.92 1236)">Nuno</text></g><g clip-path="url(#clip27)"><text fill="#595959" font-family="Calibri,Calibri_MSFontService,sans-serif" font-weight="400" font-size="41" transform="matrix(1 0 0 1 3390.37 1236)">Miguel</text></g><g clip-path="url(#clip28)"><text fill="#595959" font-family="Calibri,Calibri_MSFontService,sans-serif" font-weight="400" font-size="41" transform="matrix(1 0 0 1 3580.87 1236)">Jordão</text></g><g clip-path="url(#clip29)"><text fill="#595959" font-family="Calibri,Calibri_MSFontService,sans-serif" font-weight="400" font-size="64" transform="matrix(1 0 0 1 2721.1 382)">Horas trabalhadas</text></g><rect x="2132.5" y="287.5" width="1650" height="990" stroke="#D9D9D9" stroke-width="3.4375" stroke-linejoin="round" stroke-miterlimit="10" fill="none"/></g></svg>