<svg width="1653" height="993" xmlns="http://www.w3.org/2000/svg" xmlns:xlink="http://www.w3.org/1999/xlink" xml:space="preserve" overflow="hidden"><defs><clipPath id="clip0"><rect x="457" y="288" width="1653" height="993"/></clipPath><clipPath id="clip1"><rect x="457" y="288" width="1650" height="990"/></clipPath><clipPath id="clip2"><rect x="567" y="458" width="1493" height="717"/></clipPath><clipPath id="clip3"><rect x="457" y="288" width="1650" height="990"/></clipPath><clipPath id="clip4"><rect x="457" y="288" width="1650" height="990"/></clipPath><clipPath id="clip5"><rect x="457" y="288" width="1650" height="990"/></clipPath><clipPath id="clip6"><rect x="457" y="288" width="1650" height="990"/></clipPath><clipPath id="clip7"><rect x="457" y="288" width="1650" height="990"/></clipPath><clipPath id="clip8"><rect x="457" y="288" width="1650" height="990"/></clipPath><clipPath id="clip9"><rect x="457" y="288" width="1650" height="990"/></clipPath><clipPath id="clip10"><rect x="457" y="288" width="1650" height="990"/></clipPath><clipPath id="clip11"><rect x="457" y="288" width="1650" height="990"/></clipPath><clipPath id="clip12"><rect x="457" y="288" width="1650" height="990"/></clipPath><clipPath id="clip13"><rect x="457" y="288" width="1650" height="990"/></clipPath><clipPath id="clip14"><rect x="457" y="288" width="1650" height="990"/></clipPath><clipPath id="clip15"><rect x="457" y="288" width="1650" height="990"/></clipPath><clipPath id="clip16"><rect x="457" y="288" width="1650" height="990"/></clipPath><clipPath id="clip17"><rect x="457" y="288" width="1650" height="990"/></clipPath><clipPath id="clip18"><rect x="457" y="288" width="1650" height="990"/></clipPath><clipPath id="clip19"><rect x="457" y="288" width="1650" height="990"/></clipPath><clipPath id="clip20"><rect x="457" y="288" width="1650" height="990"/></clipPath><clipPath id="clip21"><rect x="457" y="288" width="1650" height="990"/></clipPath><clipPath id="clip22"><rect x="457" y="288" width="1650" height="990"/></clipPath><clipPath id="clip23"><rect x="457" y="288" width="1650" height="990"/></clipPath><clipPath id="clip24"><rect x="457" y="288" width="1650" height="990"/></clipPath><clipPath id="clip25"><rect x="457" y="288" width="1650" height="990"/></clipPath><clipPath id="clip26"><rect x="457" y="288" width="1650" height="990"/></clipPath><clipPath id="clip27"><rect x="457" y="288" width="1650" height="990"/></clipPath><clipPath id="clip28"><rect x="457" y="288" width="1650" height="990"/></clipPath></defs><g clip-path="url(#clip0)" transform="translate(-457 -288)"><rect x="458" y="289" width="1650" height="990" fill="#FFFFFF"/><g clip-path="url(#clip1)"><path d="M567.5 1070.54 2057.5 1070.54M567.5 968.532 2057.5 968.532M567.5 866.529 2057.5 866.529M567.5 764.525 2057.5 764.525M567.5 662.522 2057.5 662.522M567.5 560.519 2057.5 560.519M567.5 458.5 2057.5 458.5" stroke="#D9D9D9" stroke-width="3.4375" stroke-linejoin="round" stroke-miterlimit="10" fill="none"/></g><g clip-path="url(#clip2)"><path d="M632.021 765.025 690.023 765.025 690.023 1172 632.021 1172ZM818.027 561.018 876.029 561.018 876.029 1172 818.027 1172ZM1004.03 714.023 1062.03 714.023 1062.03 1172 1004.03 1172ZM1190.04 612.02 1249.04 612.02 1249.04 1172 1190.04 1172ZM1376.05 918.03 1435.05 918.03 1435.05 1172 1376.05 1172ZM1563.05 714.023 1621.05 714.023 1621.05 1172 1563.05 1172ZM1749.06 918.03 1807.06 918.03 1807.06 1172 1749.06 1172ZM1935.06 765.025 1993.07 765.025 1993.07 1172 1935.06 1172Z" fill="#4472C4"/></g><g clip-path="url(#clip3)"><path d="M567.5 1172.5 2057.5 1172.5" stroke="#D9D9D9" stroke-width="3.4375" stroke-linejoin="round" stroke-miterlimit="10" fill="none" fill-rule="evenodd"/></g><g clip-path="url(#clip4)"><text fill="#404040" font-family="Calibri,Calibri_MSFontService,sans-serif" font-weight="400" font-size="41" transform="matrix(1 0 0 1 650.391 733)">8</text></g><g clip-path="url(#clip5)"><text fill="#404040" font-family="Calibri,Calibri_MSFontService,sans-serif" font-weight="400" font-size="41" transform="matrix(1 0 0 1 826.157 529)">12</text></g><g clip-path="url(#clip6)"><text fill="#404040" font-family="Calibri,Calibri_MSFontService,sans-serif" font-weight="400" font-size="41" transform="matrix(1 0 0 1 1022.82 682)">9</text></g><g clip-path="url(#clip7)"><text fill="#404040" font-family="Calibri,Calibri_MSFontService,sans-serif" font-weight="400" font-size="41" transform="matrix(1 0 0 1 1198.59 580)">11</text></g><g clip-path="url(#clip8)"><text fill="#404040" font-family="Calibri,Calibri_MSFontService,sans-serif" font-weight="400" font-size="41" transform="matrix(1 0 0 1 1395.25 886)">5</text></g><g clip-path="url(#clip9)"><text fill="#404040" font-family="Calibri,Calibri_MSFontService,sans-serif" font-weight="400" font-size="41" transform="matrix(1 0 0 1 1581.47 682)">9</text></g><g clip-path="url(#clip10)"><text fill="#404040" font-family="Calibri,Calibri_MSFontService,sans-serif" font-weight="400" font-size="41" transform="matrix(1 0 0 1 1767.68 886)">5</text></g><g clip-path="url(#clip11)"><text fill="#404040" font-family="Calibri,Calibri_MSFontService,sans-serif" font-weight="400" font-size="41" transform="matrix(1 0 0 1 1953.9 733)">8</text></g><g clip-path="url(#clip12)"><text fill="#595959" font-family="Calibri,Calibri_MSFontService,sans-serif" font-weight="400" font-size="41" transform="matrix(1 0 0 1 508.567 1184)">0</text></g><g clip-path="url(#clip13)"><text fill="#595959" font-family="Calibri,Calibri_MSFontService,sans-serif" font-weight="400" font-size="41" transform="matrix(1 0 0 1 508.567 1082)">2</text></g><g clip-path="url(#clip14)"><text fill="#595959" font-family="Calibri,Calibri_MSFontService,sans-serif" font-weight="400" font-size="41" transform="matrix(1 0 0 1 508.567 980)">4</text></g><g clip-path="url(#clip15)"><text fill="#595959" font-family="Calibri,Calibri_MSFontService,sans-serif" font-weight="400" font-size="41" transform="matrix(1 0 0 1 508.567 878)">6</text></g><g clip-path="url(#clip16)"><text fill="#595959" font-family="Calibri,Calibri_MSFontService,sans-serif" font-weight="400" font-size="41" transform="matrix(1 0 0 1 508.567 776)">8</text></g><g clip-path="url(#clip17)"><text fill="#595959" font-family="Calibri,Calibri_MSFontService,sans-serif" font-weight="400" font-size="41" transform="matrix(1 0 0 1 487.667 674)">10</text></g><g clip-path="url(#clip18)"><text fill="#595959" font-family="Calibri,Calibri_MSFontService,sans-serif" font-weight="400" font-size="41" transform="matrix(1 0 0 1 487.667 572)">12</text></g><g clip-path="url(#clip19)"><text fill="#595959" font-family="Calibri,Calibri_MSFontService,sans-serif" font-weight="400" font-size="41" transform="matrix(1 0 0 1 487.667 470)">14</text></g><g clip-path="url(#clip20)"><text fill="#595959" font-family="Calibri,Calibri_MSFontService,sans-serif" font-weight="400" font-size="41" transform="matrix(1 0 0 1 621.413 1238)">Base</text></g><g clip-path="url(#clip21)"><text fill="#595959" font-family="Calibri,Calibri_MSFontService,sans-serif" font-weight="400" font-size="41" transform="matrix(1 0 0 1 784.62 1238)">Duarte</text></g><g clip-path="url(#clip22)"><text fill="#595959" font-family="Calibri,Calibri_MSFontService,sans-serif" font-weight="400" font-size="41" transform="matrix(1 0 0 1 982.306 1238)">Bruno</text></g><g clip-path="url(#clip23)"><text fill="#595959" font-family="Calibri,Calibri_MSFontService,sans-serif" font-weight="400" font-size="41" transform="matrix(1 0 0 1 1154.07 1238)">Rodrigo</text></g><g clip-path="url(#clip24)"><text fill="#595959" font-family="Calibri,Calibri_MSFontService,sans-serif" font-weight="400" font-size="41" transform="matrix(1 0 0 1 1355.87 1238)">Pedro</text></g><g clip-path="url(#clip25)"><text fill="#595959" font-family="Calibri,Calibri_MSFontService,sans-serif" font-weight="400" font-size="41" transform="matrix(1 0 0 1 1546.05 1238)">Nuno</text></g><g clip-path="url(#clip26)"><text fill="#595959" font-family="Calibri,Calibri_MSFontService,sans-serif" font-weight="400" font-size="41" transform="matrix(1 0 0 1 1720.22 1238)">Miguel</text></g><g clip-path="url(#clip27)"><text fill="#595959" font-family="Calibri,Calibri_MSFontService,sans-serif" font-weight="400" font-size="41" transform="matrix(1 0 0 1 1908.11 1238)">Jordão</text></g><g clip-path="url(#clip28)"><text fill="#595959" font-family="Calibri,Calibri_MSFontService,sans-serif" font-weight="400" font-size="64" transform="matrix(1 0 0 1 1047.04 384)">Horas trabalhadas</text></g><rect x="458.5" y="289.5" width="1650" height="990" stroke="#D9D9D9" stroke-width="3.4375" stroke-linejoin="round" stroke-miterlimit="10" fill="none"/></g></svg>