<svg width="1653" height="951" xmlns="http://www.w3.org/2000/svg" xmlns:xlink="http://www.w3.org/1999/xlink" xml:space="preserve" overflow="hidden"><defs><clipPath id="clip0"><rect x="1104" y="308" width="1653" height="951"/></clipPath><clipPath id="clip1"><rect x="1104" y="308" width="1650" height="949"/></clipPath><clipPath id="clip2"><rect x="1214" y="478" width="1493" height="676"/></clipPath><clipPath id="clip3"><rect x="1104" y="308" width="1650" height="949"/></clipPath><clipPath id="clip4"><rect x="1104" y="308" width="1650" height="949"/></clipPath><clipPath id="clip5"><rect x="1104" y="308" width="1650" height="949"/></clipPath><clipPath id="clip6"><rect x="1104" y="308" width="1650" height="949"/></clipPath><clipPath id="clip7"><rect x="1104" y="308" width="1650" height="949"/></clipPath><clipPath id="clip8"><rect x="1104" y="308" width="1650" height="949"/></clipPath><clipPath id="clip9"><rect x="1104" y="308" width="1650" height="949"/></clipPath><clipPath id="clip10"><rect x="1104" y="308" width="1650" height="949"/></clipPath><clipPath id="clip11"><rect x="1104" y="308" width="1650" height="949"/></clipPath><clipPath id="clip12"><rect x="1104" y="308" width="1650" height="949"/></clipPath><clipPath id="clip13"><rect x="1104" y="308" width="1650" height="949"/></clipPath><clipPath id="clip14"><rect x="1104" y="308" width="1650" height="949"/></clipPath><clipPath id="clip15"><rect x="1104" y="308" width="1650" height="949"/></clipPath><clipPath id="clip16"><rect x="1104" y="308" width="1650" height="949"/></clipPath><clipPath id="clip17"><rect x="1104" y="308" width="1650" height="949"/></clipPath><clipPath id="clip18"><rect x="1104" y="308" width="1650" height="949"/></clipPath><clipPath id="clip19"><rect x="1104" y="308" width="1650" height="949"/></clipPath><clipPath id="clip20"><rect x="1104" y="308" width="1650" height="949"/></clipPath><clipPath id="clip21"><rect x="1104" y="308" width="1650" height="949"/></clipPath><clipPath id="clip22"><rect x="1104" y="308" width="1650" height="949"/></clipPath><clipPath id="clip23"><rect x="1104" y="308" width="1650" height="949"/></clipPath><clipPath id="clip24"><rect x="1104" y="308" width="1650" height="949"/></clipPath><clipPath id="clip25"><rect x="1104" y="308" width="1650" height="949"/></clipPath></defs><g clip-path="url(#clip0)" transform="translate(-1104 -308)"><rect x="1105" y="309" width="1650" height="948" fill="#FFFFFF"/><g clip-path="url(#clip1)"><path d="M1214.5 1039.53 2704.5 1039.53M1214.5 926.531 2704.5 926.531M1214.5 814.527 2704.5 814.527M1214.5 702.523 2704.5 702.523M1214.5 590.52 2704.5 590.52M1214.5 478.5 2704.5 478.5" stroke="#D9D9D9" stroke-width="3.4375" stroke-linejoin="round" stroke-miterlimit="10" fill="none"/></g><g clip-path="url(#clip2)"><path d="M1288.04 703.023 1354.04 703.023 1354.04 1151 1288.04 1151ZM1500.05 479 1567.05 479 1567.05 1151 1500.05 1151ZM1713.06 647.021 1780.06 647.021 1780.06 1151 1713.06 1151ZM1926.06 535.018 1993.07 535.018 1993.07 1151 1926.06 1151ZM2139.07 871.029 2206.07 871.029 2206.07 1151 2139.07 1151ZM2352.08 647.021 2418.08 647.021 2418.08 1151 2352.08 1151ZM2565.08 871.029 2631.09 871.029 2631.09 1151 2565.08 1151Z" fill="#4472C4"/></g><g clip-path="url(#clip3)"><path d="M1214.5 1151.5 2704.5 1151.5" stroke="#D9D9D9" stroke-width="3.4375" stroke-linejoin="round" stroke-miterlimit="10" fill="none" fill-rule="evenodd"/></g><g clip-path="url(#clip4)"><text fill="#404040" font-family="Calibri,Calibri_MSFontService,sans-serif" font-weight="400" font-size="41" transform="matrix(1 0 0 1 1310.63 671)">8</text></g><g clip-path="url(#clip5)"><text fill="#404040" font-family="Calibri,Calibri_MSFontService,sans-serif" font-weight="400" font-size="41" transform="matrix(1 0 0 1 1513 447)">12</text></g><g clip-path="url(#clip6)"><text fill="#404040" font-family="Calibri,Calibri_MSFontService,sans-serif" font-weight="400" font-size="41" transform="matrix(1 0 0 1 1736.27 615)">9</text></g><g clip-path="url(#clip7)"><text fill="#404040" font-family="Calibri,Calibri_MSFontService,sans-serif" font-weight="400" font-size="41" transform="matrix(1 0 0 1 1938.63 503)">11</text></g><g clip-path="url(#clip8)"><text fill="#404040" font-family="Calibri,Calibri_MSFontService,sans-serif" font-weight="400" font-size="41" transform="matrix(1 0 0 1 2161.9 839)">5</text></g><g clip-path="url(#clip9)"><text fill="#404040" font-family="Calibri,Calibri_MSFontService,sans-serif" font-weight="400" font-size="41" transform="matrix(1 0 0 1 2374.72 615)">9</text></g><g clip-path="url(#clip10)"><text fill="#404040" font-family="Calibri,Calibri_MSFontService,sans-serif" font-weight="400" font-size="41" transform="matrix(1 0 0 1 2587.54 839)">5</text></g><g clip-path="url(#clip11)"><text fill="#595959" font-family="Calibri,Calibri_MSFontService,sans-serif" font-weight="400" font-size="41" transform="matrix(1 0 0 1 1155.5 1163)">0</text></g><g clip-path="url(#clip12)"><text fill="#595959" font-family="Calibri,Calibri_MSFontService,sans-serif" font-weight="400" font-size="41" transform="matrix(1 0 0 1 1155.5 1051)">2</text></g><g clip-path="url(#clip13)"><text fill="#595959" font-family="Calibri,Calibri_MSFontService,sans-serif" font-weight="400" font-size="41" transform="matrix(1 0 0 1 1155.5 939)">4</text></g><g clip-path="url(#clip14)"><text fill="#595959" font-family="Calibri,Calibri_MSFontService,sans-serif" font-weight="400" font-size="41" transform="matrix(1 0 0 1 1155.5 826)">6</text></g><g clip-path="url(#clip15)"><text fill="#595959" font-family="Calibri,Calibri_MSFontService,sans-serif" font-weight="400" font-size="41" transform="matrix(1 0 0 1 1155.5 714)">8</text></g><g clip-path="url(#clip16)"><text fill="#595959" font-family="Calibri,Calibri_MSFontService,sans-serif" font-weight="400" font-size="41" transform="matrix(1 0 0 1 1134.6 602)">10</text></g><g clip-path="url(#clip17)"><text fill="#595959" font-family="Calibri,Calibri_MSFontService,sans-serif" font-weight="400" font-size="41" transform="matrix(1 0 0 1 1134.6 490)">12</text></g><g clip-path="url(#clip18)"><text fill="#595959" font-family="Calibri,Calibri_MSFontService,sans-serif" font-weight="400" font-size="41" transform="matrix(1 0 0 1 1281.65 1216)">Base</text></g><g clip-path="url(#clip19)"><text fill="#595959" font-family="Calibri,Calibri_MSFontService,sans-serif" font-weight="400" font-size="41" transform="matrix(1 0 0 1 1471.46 1216)">Duarte</text></g><g clip-path="url(#clip20)"><text fill="#595959" font-family="Calibri,Calibri_MSFontService,sans-serif" font-weight="400" font-size="41" transform="matrix(1 0 0 1 1695.75 1216)">Bruno</text></g><g clip-path="url(#clip21)"><text fill="#595959" font-family="Calibri,Calibri_MSFontService,sans-serif" font-weight="400" font-size="41" transform="matrix(1 0 0 1 1894.12 1216)">Rodrigo</text></g><g clip-path="url(#clip22)"><text fill="#595959" font-family="Calibri,Calibri_MSFontService,sans-serif" font-weight="400" font-size="41" transform="matrix(1 0 0 1 2122.52 1216)">Pedro</text></g><g clip-path="url(#clip23)"><text fill="#595959" font-family="Calibri,Calibri_MSFontService,sans-serif" font-weight="400" font-size="41" transform="matrix(1 0 0 1 2339.3 1216)">Nuno</text></g><g clip-path="url(#clip24)"><text fill="#595959" font-family="Calibri,Calibri_MSFontService,sans-serif" font-weight="400" font-size="41" transform="matrix(1 0 0 1 2540.08 1216)">Miguel</text></g><g clip-path="url(#clip25)"><text fill="#595959" font-family="Calibri,Calibri_MSFontService,sans-serif" font-weight="400" font-size="64" transform="matrix(1 0 0 1 1698.56 404)">Horas trabalhadas</text></g><rect x="1105.5" y="309.5" width="1650" height="948" stroke="#D9D9D9" stroke-width="3.4375" stroke-linejoin="round" stroke-miterlimit="10" fill="none"/></g></svg>