<svg width="1653" height="993" xmlns="http://www.w3.org/2000/svg" xmlns:xlink="http://www.w3.org/1999/xlink" xml:space="preserve" overflow="hidden"><defs><clipPath id="clip0"><rect x="1371" y="2613" width="1653" height="993"/></clipPath><clipPath id="clip1"><rect x="1371" y="2614" width="1650" height="990"/></clipPath><clipPath id="clip2"><rect x="1481" y="2784" width="1493" height="717"/></clipPath><clipPath id="clip3"><rect x="1371" y="2614" width="1650" height="990"/></clipPath><clipPath id="clip4"><rect x="1371" y="2614" width="1650" height="990"/></clipPath><clipPath id="clip5"><rect x="1371" y="2614" width="1650" height="990"/></clipPath><clipPath id="clip6"><rect x="1371" y="2614" width="1650" height="990"/></clipPath><clipPath id="clip7"><rect x="1371" y="2614" width="1650" height="990"/></clipPath><clipPath id="clip8"><rect x="1371" y="2614" width="1650" height="990"/></clipPath><clipPath id="clip9"><rect x="1371" y="2614" width="1650" height="990"/></clipPath><clipPath id="clip10"><rect x="1371" y="2614" width="1650" height="990"/></clipPath><clipPath id="clip11"><rect x="1371" y="2614" width="1650" height="990"/></clipPath><clipPath id="clip12"><rect x="1371" y="2614" width="1650" height="990"/></clipPath><clipPath id="clip13"><rect x="1371" y="2614" width="1650" height="990"/></clipPath><clipPath id="clip14"><rect x="1371" y="2614" width="1650" height="990"/></clipPath><clipPath id="clip15"><rect x="1371" y="2614" width="1650" height="990"/></clipPath><clipPath id="clip16"><rect x="1371" y="2614" width="1650" height="990"/></clipPath><clipPath id="clip17"><rect x="1371" y="2614" width="1650" height="990"/></clipPath><clipPath id="clip18"><rect x="1371" y="2614" width="1650" height="990"/></clipPath><clipPath id="clip19"><rect x="1371" y="2614" width="1650" height="990"/></clipPath><clipPath id="clip20"><rect x="1371" y="2614" width="1650" height="990"/></clipPath><clipPath id="clip21"><rect x="1371" y="2614" width="1650" height="990"/></clipPath><clipPath id="clip22"><rect x="1371" y="2614" width="1650" height="990"/></clipPath><clipPath id="clip23"><rect x="1371" y="2614" width="1650" height="990"/></clipPath><clipPath id="clip24"><rect x="1371" y="2614" width="1650" height="990"/></clipPath><clipPath id="clip25"><rect x="1371" y="2614" width="1650" height="990"/></clipPath><clipPath id="clip26"><rect x="1371" y="2614" width="1650" height="990"/></clipPath><clipPath id="clip27"><rect x="1371" y="2614" width="1650" height="990"/></clipPath><clipPath id="clip28"><rect x="1371" y="2614" width="1650" height="990"/></clipPath></defs><g clip-path="url(#clip0)" transform="translate(-1371 -2613)"><rect x="1372" y="2614" width="1650" height="990" fill="#FFFFFF"/><g clip-path="url(#clip1)"><path d="M1481.5 3395.61 2971.5 3395.61M1481.5 3293.61 2971.5 3293.61M1481.5 3191.6 2971.5 3191.6M1481.5 3089.6 2971.5 3089.6M1481.5 2988.6 2971.5 2988.6M1481.5 2886.59 2971.5 2886.59M1481.5 2784.5 2971.5 2784.5" stroke="#D9D9D9" stroke-width="3.4375" stroke-linejoin="round" stroke-miterlimit="10" fill="none"/></g><g clip-path="url(#clip2)"><path d="M1545.05 3090.1 1604.05 3090.1 1604.05 3498 1545.05 3498ZM1732.06 2835.09 1790.06 2835.09 1790.06 3498 1732.06 3498ZM1918.06 3192.1 1976.06 3192.1 1976.06 3498 1918.06 3498ZM2104.07 3192.1 2162.07 3192.1 2162.07 3498 2104.07 3498ZM2290.08 3345.11 2349.08 3345.11 2349.08 3498 2290.08 3498ZM2476.08 3115.1 2535.08 3115.1 2535.08 3498 2476.08 3498ZM2663.09 3345.11 2721.09 3345.11 2721.09 3498 2663.09 3498ZM2849.09 3192.1 2907.1 3192.1 2907.1 3498 2849.09 3498Z" fill="#4472C4"/></g><g clip-path="url(#clip3)"><path d="M1481.5 3497.5 2971.5 3497.5" stroke="#D9D9D9" stroke-width="3.4375" stroke-linejoin="round" stroke-miterlimit="10" fill="none" fill-rule="evenodd"/></g><g clip-path="url(#clip4)"><text fill="#404040" font-family="Calibri,Calibri_MSFontService,sans-serif" font-weight="400" font-size="41" transform="matrix(1 0 0 1 1564.08 3058)">8</text></g><g clip-path="url(#clip5)"><text fill="#404040" font-family="Calibri,Calibri_MSFontService,sans-serif" font-weight="400" font-size="41" transform="matrix(1 0 0 1 1739.84 2803)">13</text></g><g clip-path="url(#clip6)"><text fill="#404040" font-family="Calibri,Calibri_MSFontService,sans-serif" font-weight="400" font-size="41" transform="matrix(1 0 0 1 1936.51 3160)">6</text></g><g clip-path="url(#clip7)"><text fill="#404040" font-family="Calibri,Calibri_MSFontService,sans-serif" font-weight="400" font-size="41" transform="matrix(1 0 0 1 2122.73 3160)">6</text></g><g clip-path="url(#clip8)"><text fill="#404040" font-family="Calibri,Calibri_MSFontService,sans-serif" font-weight="400" font-size="41" transform="matrix(1 0 0 1 2308.94 3313)">3</text></g><g clip-path="url(#clip9)"><text fill="#404040" font-family="Calibri,Calibri_MSFontService,sans-serif" font-weight="400" font-size="41" transform="matrix(1 0 0 1 2479.5 3084)">7.5</text></g><g clip-path="url(#clip10)"><text fill="#404040" font-family="Calibri,Calibri_MSFontService,sans-serif" font-weight="400" font-size="41" transform="matrix(1 0 0 1 2681.37 3313)">3</text></g><g clip-path="url(#clip11)"><text fill="#404040" font-family="Calibri,Calibri_MSFontService,sans-serif" font-weight="400" font-size="41" transform="matrix(1 0 0 1 2867.59 3160)">6</text></g><g clip-path="url(#clip12)"><text fill="#595959" font-family="Calibri,Calibri_MSFontService,sans-serif" font-weight="400" font-size="41" transform="matrix(1 0 0 1 1422.25 3509)">0</text></g><g clip-path="url(#clip13)"><text fill="#595959" font-family="Calibri,Calibri_MSFontService,sans-serif" font-weight="400" font-size="41" transform="matrix(1 0 0 1 1422.25 3407)">2</text></g><g clip-path="url(#clip14)"><text fill="#595959" font-family="Calibri,Calibri_MSFontService,sans-serif" font-weight="400" font-size="41" transform="matrix(1 0 0 1 1422.25 3306)">4</text></g><g clip-path="url(#clip15)"><text fill="#595959" font-family="Calibri,Calibri_MSFontService,sans-serif" font-weight="400" font-size="41" transform="matrix(1 0 0 1 1422.25 3204)">6</text></g><g clip-path="url(#clip16)"><text fill="#595959" font-family="Calibri,Calibri_MSFontService,sans-serif" font-weight="400" font-size="41" transform="matrix(1 0 0 1 1422.25 3102)">8</text></g><g clip-path="url(#clip17)"><text fill="#595959" font-family="Calibri,Calibri_MSFontService,sans-serif" font-weight="400" font-size="41" transform="matrix(1 0 0 1 1401.35 3000)">10</text></g><g clip-path="url(#clip18)"><text fill="#595959" font-family="Calibri,Calibri_MSFontService,sans-serif" font-weight="400" font-size="41" transform="matrix(1 0 0 1 1401.35 2898)">12</text></g><g clip-path="url(#clip19)"><text fill="#595959" font-family="Calibri,Calibri_MSFontService,sans-serif" font-weight="400" font-size="41" transform="matrix(1 0 0 1 1401.35 2796)">14</text></g><g clip-path="url(#clip20)"><text fill="#595959" font-family="Calibri,Calibri_MSFontService,sans-serif" font-weight="400" font-size="41" transform="matrix(1 0 0 1 1535.1 3563)">Base</text></g><g clip-path="url(#clip21)"><text fill="#595959" font-family="Calibri,Calibri_MSFontService,sans-serif" font-weight="400" font-size="41" transform="matrix(1 0 0 1 1698.31 3563)">Duarte</text></g><g clip-path="url(#clip22)"><text fill="#595959" font-family="Calibri,Calibri_MSFontService,sans-serif" font-weight="400" font-size="41" transform="matrix(1 0 0 1 1895.99 3563)">Bruno</text></g><g clip-path="url(#clip23)"><text fill="#595959" font-family="Calibri,Calibri_MSFontService,sans-serif" font-weight="400" font-size="41" transform="matrix(1 0 0 1 2067.76 3563)">Rodrigo</text></g><g clip-path="url(#clip24)"><text fill="#595959" font-family="Calibri,Calibri_MSFontService,sans-serif" font-weight="400" font-size="41" transform="matrix(1 0 0 1 2269.56 3563)">Pedro</text></g><g clip-path="url(#clip25)"><text fill="#595959" font-family="Calibri,Calibri_MSFontService,sans-serif" font-weight="400" font-size="41" transform="matrix(1 0 0 1 2459.74 3563)">Nuno</text></g><g clip-path="url(#clip26)"><text fill="#595959" font-family="Calibri,Calibri_MSFontService,sans-serif" font-weight="400" font-size="41" transform="matrix(1 0 0 1 2633.91 3563)">Miguel</text></g><g clip-path="url(#clip27)"><text fill="#595959" font-family="Calibri,Calibri_MSFontService,sans-serif" font-weight="400" font-size="41" transform="matrix(1 0 0 1 2821.8 3563)">Jordão</text></g><g clip-path="url(#clip28)"><text fill="#595959" font-family="Calibri,Calibri_MSFontService,sans-serif" font-weight="400" font-size="64" transform="matrix(1 0 0 1 1960.73 2710)">Horas trabalhadas</text></g><rect x="1372.5" y="2614.5" width="1650" height="990" stroke="#D9D9D9" stroke-width="3.4375" stroke-linejoin="round" stroke-miterlimit="10" fill="none"/></g></svg>