<svg width="1653" height="952" xmlns="http://www.w3.org/2000/svg" xmlns:xlink="http://www.w3.org/1999/xlink" xml:space="preserve" overflow="hidden"><defs><clipPath id="clip0"><rect x="937" y="1239" width="1653" height="952"/></clipPath><clipPath id="clip1"><rect x="937" y="1240" width="1650" height="949"/></clipPath><clipPath id="clip2"><rect x="1047" y="1410" width="1493" height="676"/></clipPath><clipPath id="clip3"><rect x="937" y="1240" width="1650" height="949"/></clipPath><clipPath id="clip4"><rect x="937" y="1240" width="1650" height="949"/></clipPath><clipPath id="clip5"><rect x="937" y="1240" width="1650" height="949"/></clipPath><clipPath id="clip6"><rect x="937" y="1240" width="1650" height="949"/></clipPath><clipPath id="clip7"><rect x="937" y="1240" width="1650" height="949"/></clipPath><clipPath id="clip8"><rect x="937" y="1240" width="1650" height="949"/></clipPath><clipPath id="clip9"><rect x="937" y="1240" width="1650" height="949"/></clipPath><clipPath id="clip10"><rect x="937" y="1240" width="1650" height="949"/></clipPath><clipPath id="clip11"><rect x="937" y="1240" width="1650" height="949"/></clipPath><clipPath id="clip12"><rect x="937" y="1240" width="1650" height="949"/></clipPath><clipPath id="clip13"><rect x="937" y="1240" width="1650" height="949"/></clipPath><clipPath id="clip14"><rect x="937" y="1240" width="1650" height="949"/></clipPath><clipPath id="clip15"><rect x="937" y="1240" width="1650" height="949"/></clipPath><clipPath id="clip16"><rect x="937" y="1240" width="1650" height="949"/></clipPath><clipPath id="clip17"><rect x="937" y="1240" width="1650" height="949"/></clipPath><clipPath id="clip18"><rect x="937" y="1240" width="1650" height="949"/></clipPath><clipPath id="clip19"><rect x="937" y="1240" width="1650" height="949"/></clipPath><clipPath id="clip20"><rect x="937" y="1240" width="1650" height="949"/></clipPath><clipPath id="clip21"><rect x="937" y="1240" width="1650" height="949"/></clipPath><clipPath id="clip22"><rect x="937" y="1240" width="1650" height="949"/></clipPath><clipPath id="clip23"><rect x="937" y="1240" width="1650" height="949"/></clipPath><clipPath id="clip24"><rect x="937" y="1240" width="1650" height="949"/></clipPath><clipPath id="clip25"><rect x="937" y="1240" width="1650" height="949"/></clipPath><clipPath id="clip26"><rect x="937" y="1240" width="1650" height="949"/></clipPath><clipPath id="clip27"><rect x="937" y="1240" width="1650" height="949"/></clipPath><clipPath id="clip28"><rect x="937" y="1240" width="1650" height="949"/></clipPath><clipPath id="clip29"><rect x="937" y="1240" width="1650" height="949"/></clipPath><clipPath id="clip30"><rect x="937" y="1240" width="1650" height="949"/></clipPath><clipPath id="clip31"><rect x="937" y="1240" width="1650" height="949"/></clipPath></defs><g clip-path="url(#clip0)" transform="translate(-937 -1239)"><rect x="938" y="1240" width="1650" height="949" fill="#FFFFFF"/><g clip-path="url(#clip1)"><path d="M1047.5 2015.57 2537.5 2015.57M1047.5 1948.56 2537.5 1948.56M1047.5 1880.56 2537.5 1880.56M1047.5 1813.56 2537.5 1813.56M1047.5 1746.56 2537.5 1746.56M1047.5 1679.56 2537.5 1679.56M1047.5 1611.55 2537.5 1611.55M1047.5 1544.55 2537.5 1544.55M1047.5 1477.55 2537.5 1477.55M1047.5 1410.5 2537.5 1410.5" stroke="#D9D9D9" stroke-width="3.4375" stroke-linejoin="round" stroke-miterlimit="10" fill="none"/></g><g clip-path="url(#clip2)"><path d="M1111.04 1545.05 1170.04 1545.05 1170.04 2083 1111.04 2083ZM1298.04 1612.05 1356.04 1612.05 1356.04 2083 1298.04 2083ZM1484.05 1477.05 1542.05 1477.05 1542.05 2083 1484.05 2083ZM1670.05 1679.06 1728.06 1679.06 1728.06 2083 1670.05 2083ZM1856.06 1612.05 1915.06 1612.05 1915.06 2083 1856.06 2083ZM2043.07 1511.05 2101.07 1511.05 2101.07 2083 2043.07 2083ZM2229.07 1545.05 2287.08 1545.05 2287.08 2083 2229.07 2083ZM2415.08 1612.05 2473.08 1612.05 2473.08 2083 2415.08 2083Z" fill="#4472C4"/></g><g clip-path="url(#clip3)"><path d="M1047.5 2082.5 2537.5 2082.5" stroke="#D9D9D9" stroke-width="3.4375" stroke-linejoin="round" stroke-miterlimit="10" fill="none" fill-rule="evenodd"/></g><g clip-path="url(#clip4)"><text fill="#404040" font-family="Calibri,Calibri_MSFontService,sans-serif" font-weight="400" font-size="41" transform="matrix(1 0 0 1 1130.27 1513)">8</text></g><g clip-path="url(#clip5)"><text fill="#404040" font-family="Calibri,Calibri_MSFontService,sans-serif" font-weight="400" font-size="41" transform="matrix(1 0 0 1 1316.48 1580)">7</text></g><g clip-path="url(#clip6)"><text fill="#404040" font-family="Calibri,Calibri_MSFontService,sans-serif" font-weight="400" font-size="41" transform="matrix(1 0 0 1 1502.7 1446)">9</text></g><g clip-path="url(#clip7)"><text fill="#404040" font-family="Calibri,Calibri_MSFontService,sans-serif" font-weight="400" font-size="41" transform="matrix(1 0 0 1 1688.91 1647)">6</text></g><g clip-path="url(#clip8)"><text fill="#404040" font-family="Calibri,Calibri_MSFontService,sans-serif" font-weight="400" font-size="41" transform="matrix(1 0 0 1 1875.13 1580)">7</text></g><g clip-path="url(#clip9)"><text fill="#404040" font-family="Calibri,Calibri_MSFontService,sans-serif" font-weight="400" font-size="41" transform="matrix(1 0 0 1 2045.69 1479)">8.5</text></g><g clip-path="url(#clip10)"><text fill="#404040" font-family="Calibri,Calibri_MSFontService,sans-serif" font-weight="400" font-size="41" transform="matrix(1 0 0 1 2247.56 1513)">8</text></g><g clip-path="url(#clip11)"><text fill="#404040" font-family="Calibri,Calibri_MSFontService,sans-serif" font-weight="400" font-size="41" transform="matrix(1 0 0 1 2433.78 1580)">7</text></g><g clip-path="url(#clip12)"><text fill="#595959" font-family="Calibri,Calibri_MSFontService,sans-serif" font-weight="400" font-size="41" transform="matrix(1 0 0 1 988.442 2094)">0</text></g><g clip-path="url(#clip13)"><text fill="#595959" font-family="Calibri,Calibri_MSFontService,sans-serif" font-weight="400" font-size="41" transform="matrix(1 0 0 1 988.442 2027)">1</text></g><g clip-path="url(#clip14)"><text fill="#595959" font-family="Calibri,Calibri_MSFontService,sans-serif" font-weight="400" font-size="41" transform="matrix(1 0 0 1 988.442 1960)">2</text></g><g clip-path="url(#clip15)"><text fill="#595959" font-family="Calibri,Calibri_MSFontService,sans-serif" font-weight="400" font-size="41" transform="matrix(1 0 0 1 988.442 1892)">3</text></g><g clip-path="url(#clip16)"><text fill="#595959" font-family="Calibri,Calibri_MSFontService,sans-serif" font-weight="400" font-size="41" transform="matrix(1 0 0 1 988.442 1825)">4</text></g><g clip-path="url(#clip17)"><text fill="#595959" font-family="Calibri,Calibri_MSFontService,sans-serif" font-weight="400" font-size="41" transform="matrix(1 0 0 1 988.442 1758)">5</text></g><g clip-path="url(#clip18)"><text fill="#595959" font-family="Calibri,Calibri_MSFontService,sans-serif" font-weight="400" font-size="41" transform="matrix(1 0 0 1 988.442 1691)">6</text></g><g clip-path="url(#clip19)"><text fill="#595959" font-family="Calibri,Calibri_MSFontService,sans-serif" font-weight="400" font-size="41" transform="matrix(1 0 0 1 988.442 1624)">7</text></g><g clip-path="url(#clip20)"><text fill="#595959" font-family="Calibri,Calibri_MSFontService,sans-serif" font-weight="400" font-size="41" transform="matrix(1 0 0 1 988.442 1556)">8</text></g><g clip-path="url(#clip21)"><text fill="#595959" font-family="Calibri,Calibri_MSFontService,sans-serif" font-weight="400" font-size="41" transform="matrix(1 0 0 1 988.442 1489)">9</text></g><g clip-path="url(#clip22)"><text fill="#595959" font-family="Calibri,Calibri_MSFontService,sans-serif" font-weight="400" font-size="41" transform="matrix(1 0 0 1 967.542 1422)">10</text></g><g clip-path="url(#clip23)"><text fill="#595959" font-family="Calibri,Calibri_MSFontService,sans-serif" font-weight="400" font-size="41" transform="matrix(1 0 0 1 1101.29 2148)">Base</text></g><g clip-path="url(#clip24)"><text fill="#595959" font-family="Calibri,Calibri_MSFontService,sans-serif" font-weight="400" font-size="41" transform="matrix(1 0 0 1 1264.5 2148)">Duarte</text></g><g clip-path="url(#clip25)"><text fill="#595959" font-family="Calibri,Calibri_MSFontService,sans-serif" font-weight="400" font-size="41" transform="matrix(1 0 0 1 1462.18 2148)">Bruno</text></g><g clip-path="url(#clip26)"><text fill="#595959" font-family="Calibri,Calibri_MSFontService,sans-serif" font-weight="400" font-size="41" transform="matrix(1 0 0 1 1633.95 2148)">Rodrigo</text></g><g clip-path="url(#clip27)"><text fill="#595959" font-family="Calibri,Calibri_MSFontService,sans-serif" font-weight="400" font-size="41" transform="matrix(1 0 0 1 1835.75 2148)">Pedro</text></g><g clip-path="url(#clip28)"><text fill="#595959" font-family="Calibri,Calibri_MSFontService,sans-serif" font-weight="400" font-size="41" transform="matrix(1 0 0 1 2025.93 2148)">Nuno</text></g><g clip-path="url(#clip29)"><text fill="#595959" font-family="Calibri,Calibri_MSFontService,sans-serif" font-weight="400" font-size="41" transform="matrix(1 0 0 1 2200.1 2148)">Miguel</text></g><g clip-path="url(#clip30)"><text fill="#595959" font-family="Calibri,Calibri_MSFontService,sans-serif" font-weight="400" font-size="41" transform="matrix(1 0 0 1 2387.99 2148)">Jordão</text></g><g clip-path="url(#clip31)"><text fill="#595959" font-family="Calibri,Calibri_MSFontService,sans-serif" font-weight="400" font-size="64" transform="matrix(1 0 0 1 1546.24 1334)">Horas trabalhadas</text></g><rect x="938.5" y="1240.5" width="1650" height="949" stroke="#D9D9D9" stroke-width="3.4375" stroke-linejoin="round" stroke-miterlimit="10" fill="none"/></g></svg>